<mxfile host="app.diagrams.net" modified="2023-01-27T08:32:33.505Z" agent="5.0 (iPhone; CPU iPhone OS 16_1 like Mac OS X) AppleWebKit/605.1.15 (KHTML, like Gecko) Version/16.1 Mobile/15E148 Safari/604.1" etag="u-igWizN-Rm20Of3y4W9" version="20.8.13" type="github">
  <diagram name="페이지-1" id="gn2Daug9XJeE2kQflPxs">
    <mxGraphModel dx="455" dy="581" grid="1" gridSize="10" guides="1" tooltips="1" connect="1" arrows="1" fold="1" page="1" pageScale="1" pageWidth="1600" pageHeight="900" math="0" shadow="0">
      <root>
        <mxCell id="0" />
        <mxCell id="1" parent="0" />
        <mxCell id="w6mTnoe_5LUZM0iHnQS9-1" value="&lt;span&gt;트위터 웹 앱&lt;/span&gt;" style="rounded=0;whiteSpace=wrap;html=1;fillColor=none;movable=1;resizable=1;rotatable=1;deletable=1;editable=1;connectable=1;container=1;verticalAlign=top;fontStyle=1" parent="1" vertex="1">
          <mxGeometry x="170" y="100" width="400" height="400" as="geometry">
            <mxRectangle x="170" y="100" width="100" height="50" as="alternateBounds" />
          </mxGeometry>
        </mxCell>
        <mxCell id="w6mTnoe_5LUZM0iHnQS9-10" value="&amp;lt;포함&amp;gt;" style="endArrow=none;dashed=1;html=1;dashPattern=1 3;strokeWidth=2;rounded=0;startArrow=open;startFill=0;" parent="w6mTnoe_5LUZM0iHnQS9-1" source="hKpgMVrdfBKt1ZzqLcf0-6" target="7-BmRRZVu2hoqrGzT0Q7-1" edge="1">
          <mxGeometry width="50" height="50" relative="1" as="geometry">
            <mxPoint x="151.60251471689298" y="273.8119921509904" as="sourcePoint" />
            <mxPoint x="218.39748528310702" y="238.1880078490096" as="targetPoint" />
          </mxGeometry>
        </mxCell>
        <mxCell id="w6mTnoe_5LUZM0iHnQS9-14" value="&amp;lt;포함&amp;gt;" style="endArrow=none;dashed=1;html=1;dashPattern=1 3;strokeWidth=2;rounded=0;startArrow=open;startFill=0;" parent="w6mTnoe_5LUZM0iHnQS9-1" source="hKpgMVrdfBKt1ZzqLcf0-6" target="7-BmRRZVu2hoqrGzT0Q7-2" edge="1">
          <mxGeometry width="50" height="50" relative="1" as="geometry">
            <mxPoint x="218.39748528310474" y="193.81199215098914" as="sourcePoint" />
            <mxPoint x="143.97571471341644" y="266.2063765801805" as="targetPoint" />
          </mxGeometry>
        </mxCell>
        <mxCell id="hKpgMVrdfBKt1ZzqLcf0-6" value="인증" style="rounded=0;whiteSpace=wrap;html=1;fillColor=none;movable=1;resizable=1;rotatable=1;deletable=1;editable=1;connectable=1;glass=0;container=0;verticalAlign=middle;fontStyle=0" parent="w6mTnoe_5LUZM0iHnQS9-1" vertex="1">
          <mxGeometry x="280" y="150" width="100" height="30" as="geometry">
            <mxRectangle x="180" y="175" width="200" height="30" as="alternateBounds" />
          </mxGeometry>
        </mxCell>
        <mxCell id="hKpgMVrdfBKt1ZzqLcf0-11" value="로그인" style="rounded=0;whiteSpace=wrap;html=1;fillColor=none;movable=1;resizable=1;rotatable=1;deletable=1;editable=1;connectable=1;glass=0;container=1;verticalAlign=top;fontStyle=4" parent="w6mTnoe_5LUZM0iHnQS9-1" vertex="1" collapsed="1">
          <mxGeometry x="280" y="220" width="100" height="30" as="geometry">
            <mxRectangle x="280" y="220" width="100" height="70" as="alternateBounds" />
          </mxGeometry>
        </mxCell>
        <mxCell id="hKpgMVrdfBKt1ZzqLcf0-12" value="이메일 입력" style="rounded=0;whiteSpace=wrap;html=1;fillColor=none;movable=1;resizable=1;rotatable=1;deletable=1;editable=1;connectable=1;glass=0;container=0;fontSize=10;" parent="hKpgMVrdfBKt1ZzqLcf0-11" vertex="1">
          <mxGeometry y="30" width="100" height="20" as="geometry">
            <mxRectangle x="210" y="250" width="60" height="30" as="alternateBounds" />
          </mxGeometry>
        </mxCell>
        <mxCell id="hKpgMVrdfBKt1ZzqLcf0-13" value="SNS 연동" style="rounded=0;whiteSpace=wrap;html=1;fillColor=none;movable=1;resizable=1;rotatable=1;deletable=1;editable=1;connectable=1;glass=0;container=0;fontSize=10;" parent="hKpgMVrdfBKt1ZzqLcf0-11" vertex="1">
          <mxGeometry y="50" width="100" height="20" as="geometry">
            <mxRectangle x="210" y="250" width="60" height="30" as="alternateBounds" />
          </mxGeometry>
        </mxCell>
        <mxCell id="hKpgMVrdfBKt1ZzqLcf0-8" value="&lt;u style=&quot;&quot;&gt;회원가입&lt;/u&gt;" style="rounded=0;whiteSpace=wrap;html=1;fillColor=none;movable=1;resizable=1;rotatable=1;deletable=1;editable=1;connectable=1;glass=0;container=1;verticalAlign=top;" parent="w6mTnoe_5LUZM0iHnQS9-1" vertex="1" collapsed="1">
          <mxGeometry x="280" y="320" width="100" height="30" as="geometry">
            <mxRectangle x="280" y="320" width="100" height="70" as="alternateBounds" />
          </mxGeometry>
        </mxCell>
        <mxCell id="hKpgMVrdfBKt1ZzqLcf0-9" value="&lt;font style=&quot;font-size: 10px;&quot;&gt;이메일 입력&lt;/font&gt;" style="rounded=0;whiteSpace=wrap;html=1;fillColor=none;movable=1;resizable=1;rotatable=1;deletable=1;editable=1;connectable=1;glass=0;container=0;" parent="hKpgMVrdfBKt1ZzqLcf0-8" vertex="1">
          <mxGeometry y="30" width="100" height="20" as="geometry">
            <mxRectangle x="210" y="250" width="60" height="30" as="alternateBounds" />
          </mxGeometry>
        </mxCell>
        <mxCell id="hKpgMVrdfBKt1ZzqLcf0-10" value="SNS 연동" style="rounded=0;whiteSpace=wrap;html=1;fillColor=none;movable=1;resizable=1;rotatable=1;deletable=1;editable=1;connectable=1;glass=0;container=0;fontSize=10;" parent="hKpgMVrdfBKt1ZzqLcf0-8" vertex="1">
          <mxGeometry y="50" width="100" height="20" as="geometry">
            <mxRectangle x="210" y="250" width="60" height="30" as="alternateBounds" />
          </mxGeometry>
        </mxCell>
        <mxCell id="hKpgMVrdfBKt1ZzqLcf0-14" value="&amp;lt;확장&amp;gt;" style="endArrow=none;dashed=1;html=1;dashPattern=1 3;strokeWidth=2;rounded=0;startArrow=open;startFill=0;" parent="w6mTnoe_5LUZM0iHnQS9-1" source="hKpgMVrdfBKt1ZzqLcf0-11" target="hKpgMVrdfBKt1ZzqLcf0-6" edge="1">
          <mxGeometry x="0.0434" y="-7" width="50" height="50" relative="1" as="geometry">
            <mxPoint x="318.09613400538524" y="205" as="sourcePoint" />
            <mxPoint x="155.48570171586698" y="279.238233711573" as="targetPoint" />
            <mxPoint as="offset" />
          </mxGeometry>
        </mxCell>
        <mxCell id="hKpgMVrdfBKt1ZzqLcf0-15" value="&amp;lt;확장&amp;gt;" style="endArrow=none;dashed=1;html=1;dashPattern=1 3;strokeWidth=2;rounded=0;startArrow=open;startFill=0;" parent="w6mTnoe_5LUZM0iHnQS9-1" source="hKpgMVrdfBKt1ZzqLcf0-8" target="hKpgMVrdfBKt1ZzqLcf0-11" edge="1">
          <mxGeometry x="0.0414" y="-7" width="50" height="50" relative="1" as="geometry">
            <mxPoint x="292.27272727272725" y="270" as="sourcePoint" />
            <mxPoint x="333.6363636363635" y="205" as="targetPoint" />
            <mxPoint as="offset" />
          </mxGeometry>
        </mxCell>
        <mxCell id="7-BmRRZVu2hoqrGzT0Q7-1" value="게시글 공유" style="whiteSpace=wrap;html=1;" vertex="1" parent="w6mTnoe_5LUZM0iHnQS9-1">
          <mxGeometry x="50" y="90" width="120" height="60" as="geometry" />
        </mxCell>
        <mxCell id="7-BmRRZVu2hoqrGzT0Q7-2" value="프로필 수정" style="whiteSpace=wrap;html=1;" vertex="1" parent="w6mTnoe_5LUZM0iHnQS9-1">
          <mxGeometry x="50" y="290" width="120" height="60" as="geometry" />
        </mxCell>
        <mxCell id="w6mTnoe_5LUZM0iHnQS9-2" value="사용자&lt;br&gt;(회원)" style="shape=umlActor;verticalLabelPosition=bottom;verticalAlign=top;html=1;outlineConnect=0;" parent="1" vertex="1">
          <mxGeometry x="100" y="190" width="30" height="60" as="geometry" />
        </mxCell>
        <mxCell id="w6mTnoe_5LUZM0iHnQS9-12" value="firebase" style="rounded=1;whiteSpace=wrap;html=1;fillColor=none;movable=1;resizable=1;rotatable=1;deletable=1;editable=1;connectable=1;" parent="1" vertex="1">
          <mxGeometry x="600" y="100" width="100" height="50" as="geometry" />
        </mxCell>
        <mxCell id="w6mTnoe_5LUZM0iHnQS9-13" value="react" style="rounded=1;whiteSpace=wrap;html=1;fillColor=none;movable=1;resizable=1;rotatable=1;deletable=1;editable=1;connectable=1;glass=0;" parent="1" vertex="1">
          <mxGeometry x="600" y="298" width="100" height="50" as="geometry" />
        </mxCell>
        <mxCell id="w6mTnoe_5LUZM0iHnQS9-15" value="" style="endArrow=classic;html=1;rounded=0;" parent="1" source="w6mTnoe_5LUZM0iHnQS9-13" target="w6mTnoe_5LUZM0iHnQS9-1" edge="1">
          <mxGeometry width="50" height="50" relative="1" as="geometry">
            <mxPoint x="450" y="340" as="sourcePoint" />
            <mxPoint x="500" y="290" as="targetPoint" />
          </mxGeometry>
        </mxCell>
        <mxCell id="w6mTnoe_5LUZM0iHnQS9-16" value="" style="endArrow=classic;html=1;rounded=0;" parent="1" source="w6mTnoe_5LUZM0iHnQS9-12" target="hKpgMVrdfBKt1ZzqLcf0-6" edge="1">
          <mxGeometry width="50" height="50" relative="1" as="geometry">
            <mxPoint x="610" y="284.090909090909" as="sourcePoint" />
            <mxPoint x="560" y="273.18181818181813" as="targetPoint" />
          </mxGeometry>
        </mxCell>
        <mxCell id="w6mTnoe_5LUZM0iHnQS9-17" value="" style="endArrow=none;html=1;rounded=0;" parent="1" source="w6mTnoe_5LUZM0iHnQS9-2" target="7-BmRRZVu2hoqrGzT0Q7-1" edge="1">
          <mxGeometry width="50" height="50" relative="1" as="geometry">
            <mxPoint x="450" y="300" as="sourcePoint" />
            <mxPoint x="500" y="250" as="targetPoint" />
          </mxGeometry>
        </mxCell>
        <mxCell id="w6mTnoe_5LUZM0iHnQS9-18" value="" style="endArrow=none;html=1;rounded=0;" parent="1" source="w6mTnoe_5LUZM0iHnQS9-2" target="7-BmRRZVu2hoqrGzT0Q7-2" edge="1">
          <mxGeometry width="50" height="50" relative="1" as="geometry">
            <mxPoint x="140" y="226.35135135135135" as="sourcePoint" />
            <mxPoint x="236.37840145675875" y="352.9920534020438" as="targetPoint" />
          </mxGeometry>
        </mxCell>
      </root>
    </mxGraphModel>
  </diagram>
</mxfile>
